<svg id="Layer_1" data-name="Layer 1" xmlns="http://www.w3.org/2000/svg" viewBox="0 0 847.78 965.46"><defs><style>.cls-1,.cls-2,.cls-6,.cls-8{fill:none;}.cls-1{stroke:#231f20;stroke-width:100px;}.cls-1,.cls-2,.cls-5,.cls-6,.cls-8{stroke-miterlimit:10;}.cls-2,.cls-5,.cls-6{stroke:#fff;}.cls-3{fill:#857d7d;}.cls-4,.cls-5{fill:#fff;}.cls-5,.cls-6{stroke-width:5px;}.cls-7{fill:#231f20;}.cls-8{stroke:#503214;stroke-width:3px;}.cls-9{fill:#b11f24;}</style></defs><path class="cls-1" d="M62.44,69.55c14.65-16.77,33-18.24,145.82-18.25,157.8,0,143.68,2.86,207.44,1.63,79.28-1.53,82-5.61,96.36,1.85,72.36,37.53,31.25,154.57,104.4,207.76,60.74,44.17,127.6-8.56,168.86,39.11,7.67,8.86,12.78,19.25,13.79,157,.72,99-1.72,120.32-18.74,134.72-9.86,8.33-38.84,9-96.41,9.91-37.81.62-72.44,0-127-1.63-43.39-1.25-86.79-2.15-130.18-3.26C196.41,592.5,164.91,599.88,151.93,623c-4.21,7.5-3.85,34.52-3.13,88.54.76,57.41,5,65.92,9.64,71.73,13.7,17,35.22,15.68,106.07,14.67,121.36-1.72,134.14,2.48,151.19-17.93,15.56-18.63,6-34.45,5.13-134.76-.3-34.94.63-60.53,2.48-111.63,4.38-120.94,12.86-147.33-7-164.74-7.64-6.69-15.46-8.55-100.8-6.19-68.7,1.9-77.23,3.48-105.33,3.49-82.38,0-123.58.05-144.95-23.07C50.82,327.53,53.54,314,52.37,202.91,51.29,99.58,48.67,85.31,62.44,69.55Z" transform="translate(-1.44 116.99)"/><path class="cls-2" d="M291.54,5.93c24.33.56,35.95,1.53,67.71,2.17,16.64.33,25,.5,32.24.45,37.41-.28,48.2-1.8,82.06-2.62a132.91,132.91,0,0,1,36.23,3.49,124.63,124.63,0,0,1,35.8,14.84,118.07,118.07,0,0,1,25.75,21.39c12.72,14.3,18.22,28.13,23.52,41.83,7.84,20.25,11,37.29,15,59.12,3.49,18.87,4.24,28.63,10.23,45.39,4.75,13.27,7.36,20.31,14.38,27.48,14.81,15.13,35.58,16.89,39.95,17.26,3.56.3,4.63.11,15-.32,14.43-.59,34-1.12,42.5-1,10.16.2,40.85.77,68.4,20.46A100,100,0,0,1,827.53,285c11.81,19.73,12.71,38.19,13.77,67.44,1.92,53.07,2.88,79.6,2.85,87.57-.49,110.7,1.28,144.36-21.74,172.27A98.18,98.18,0,0,1,802,630.81c-20.41,13.41-40.79,14.56-69.36,15.66-44.11,1.7-66.16,2.56-89.17,2.24-30-.42-34.7-1.11-85-2.56-24.9-.72-44.41-1.12-83.42-1.92-54.24-1.11-45.67-.65-108-1.91-30.78-.63-61.6-.08-92.37-1.28,0,0-6.47-.26-23.33,0-47.7.66-54.72,5.05-57.53,9.93-2.08,3.62-.56,5.31.64,18.85.85,9.53.46,21.27-.32,44.75-.83,25.16-2.22,35.57,4.16,39.63,3.18,2,6.79,1.52,8.63,1.28,32.12-4.17,64.81-.28,97.16-1.92,22-1.12,33.26-1.67,42.51-1.28.86,0,5.05,0,13.42,0,13,0,15.47-.15,17.58-1.92,3.81-3.19,3.34-9.32,2.56-17.89-2.31-25.28-3.46-37.92-3.52-38.36-.95-7-1.27-17.11-1.92-37.39-1-30.78.06-58.38,2.16-112.31.95-24.3,1.64-37.58,2-44.95,1-18.79,1.9-37.61,3.93-56.32,2.25-20.77,4.1-28.85-1.37-34.36-4.17-4.2-9.59-3.9-29.2-3.22-16.05.56-32.13.53-48.16,1.51,0,0-5.6.35-43.08,2.2-35.61,1.76-63.69,1.06-80.18.66-53.53-1.33-80.29-2-101.66-10.44C62,392.71,39.81,384,24.13,362.26,8,340,7.73,308.7,7.12,246.16,6.9,222.88,8,217.46,7.5,182c-.44-32.5-1.45-35.92-.86-54.74,1.2-37.65,2-56.85,13.62-75.12,11.36-17.91,27-27.13,32-30,15.12-8.71,28.6-10.79,44.15-13.19,6.56-1,11-1.35,49.31-2.57,19.29-.62,28.94-.93,33.89-1C215.79,4.54,253.14,5,291.54,5.93Z" transform="translate(-1.44 116.99)"/><rect class="cls-3" x="210.62" y="134.94" width="17.38" height="16.69"/><rect class="cls-4" x="210.62" y="118.23" width="17.38" height="16.69"/><rect class="cls-4" x="228" y="134.92" width="17.38" height="16.69"/><rect class="cls-4" x="245.38" y="151.6" width="17.38" height="16.69"/><rect class="cls-4" x="245.38" y="118.23" width="17.38" height="16.69"/><rect class="cls-4" x="210.62" y="151.6" width="17.38" height="16.69"/><rect class="cls-4" x="228" y="168.29" width="17.38" height="16.69"/><rect class="cls-4" x="210.62" y="184.97" width="17.38" height="16.69"/><rect class="cls-4" x="245.38" y="184.97" width="17.38" height="16.69"/><rect class="cls-4" x="228" y="201.66" width="17.38" height="16.69"/><rect class="cls-3" x="228" y="118.23" width="17.38" height="16.69"/><rect class="cls-3" x="245.38" y="134.92" width="17.38" height="16.69"/><rect class="cls-3" x="228" y="151.6" width="17.38" height="16.69"/><rect class="cls-3" x="210.62" y="168.3" width="17.38" height="16.69"/><rect class="cls-3" x="245.38" y="168.29" width="17.38" height="16.69"/><rect class="cls-3" x="228" y="184.99" width="17.38" height="16.69"/><rect class="cls-3" x="210.62" y="201.66" width="17.38" height="16.69"/><rect class="cls-3" x="245.38" y="201.66" width="17.38" height="16.69"/><line class="cls-5" x1="287.5" y1="168.62" x2="317.19" y2="168.99"/><line class="cls-5" x1="355.63" y1="168.81" x2="385.32" y2="169.18"/><line class="cls-5" x1="423.89" y1="169.18" x2="453.59" y2="169.56"/><path class="cls-6" d="M498.48,52.38c3.5-.42,14.64-1.27,24.84,5.85a33.93,33.93,0,0,1,8.83,9.1" transform="translate(-1.44 116.99)"/><line class="cls-5" x1="549.34" y1="215.84" x2="558.24" y2="244.17"/><line class="cls-5" x1="566.43" y1="281.36" x2="572.02" y2="310.52"/><path class="cls-6" d="M588.23,232.16a63.93,63.93,0,0,0,14.11,21.27,62,62,0,0,0,9.42,7.69" transform="translate(-1.44 116.99)"/><path class="cls-6" d="M649.46,279.52a162,162,0,0,0,25.26,3.64c5.56.35,10.78.39,15.59.23" transform="translate(-1.44 116.99)"/><path class="cls-6" d="M768.94,289.48a63.84,63.84,0,0,0-24.34-7.66,62.72,62.72,0,0,0-12.17-.05" transform="translate(-1.44 116.99)"/><path class="cls-6" d="M797.08,364.53a209.23,209.23,0,0,0-2.47-25.74c-.86-5.41-1.89-10.52-3-15.3" transform="translate(-1.44 116.99)"/><line class="cls-5" x1="797.32" y1="521.39" x2="797.92" y2="556.05"/><line class="cls-5" x1="797.55" y1="592.17" x2="798.14" y2="626.06"/><path class="cls-6" d="M783.09,587.48a45.08,45.08,0,0,0,11-12.62A46.21,46.21,0,0,0,800.23,549" transform="translate(-1.44 116.99)"/><line class="cls-5" x1="710.1" y1="718.79" x2="743.99" y2="717.82"/><line class="cls-5" x1="641.15" y1="719.28" x2="675.04" y2="718.3"/><line class="cls-5" x1="565.14" y1="718.14" x2="599.05" y2="718.46"/><line class="cls-5" x1="493.44" y1="716.47" x2="527.33" y2="717.59"/><line class="cls-5" x1="274.96" y1="712.25" x2="308.86" y2="712.13"/><line class="cls-5" x1="202.83" y1="715.38" x2="236.63" y2="712.78"/><path class="cls-6" d="M167.32,607.27c-3,1.79-12.43,7.84-16.25,19.69a33.83,33.83,0,0,0-1.52,12.58" transform="translate(-1.44 116.99)"/><line class="cls-5" x1="148.3" y1="796.37" x2="148.91" y2="831.03"/><path class="cls-6" d="M176.64,793.05a44.8,44.8,0,0,1-12.76-10.89,46.15,46.15,0,0,1-9.75-24.72" transform="translate(-1.44 116.99)"/><line class="cls-5" x1="212.62" y1="915.52" x2="246.52" y2="915.4"/><line class="cls-5" x1="287.36" y1="915.46" x2="321.26" y2="915.34"/><path class="cls-5" d="M364.35,798.1a107.31,107.31,0,0,0,34.54-7.62" transform="translate(-1.44 116.99)"/><line class="cls-5" x1="423.4" y1="839.77" x2="424" y2="874.43"/><line class="cls-5" x1="418.32" y1="690.3" x2="418.93" y2="724.96"/><line class="cls-5" x1="424.35" y1="613.56" x2="422.85" y2="648.19"/><line class="cls-5" x1="429.21" y1="538.49" x2="427.71" y2="573.13"/><path class="cls-6" d="M398.62,360.71c3.5.47,14.5,2.4,22.62,11.83a34,34,0,0,1,6.29,11" transform="translate(-1.44 116.99)"/><line class="cls-5" x1="317.2" y1="478.03" x2="351.09" y2="477.39"/><line class="cls-5" x1="243.34" y1="481.75" x2="277.24" y2="481.11"/><line class="cls-5" x1="163.13" y1="482.39" x2="197.03" y2="481.75"/><path class="cls-5" d="M84.39,355.72a107.24,107.24,0,0,0,34.36,8.41" transform="translate(-1.44 116.99)"/><path class="cls-5" d="M53.14,285.62a106.3,106.3,0,0,0,.56,17.94,107.47,107.47,0,0,0,3.44,17.2" transform="translate(-1.44 116.99)"/><line class="cls-5" x1="51.58" y1="323.82" x2="51.53" y2="358.48"/><line class="cls-5" x1="51.6" y1="246.06" x2="51.55" y2="280.72"/><path class="cls-6" d="M60,79.45C61,76.07,64.63,65.52,75.23,59a33.85,33.85,0,0,1,11.86-4.46" transform="translate(-1.44 116.99)"/><line class="cls-5" x1="138.74" y1="168.99" x2="168.43" y2="169.37"/><path class="cls-2" d="M143,97.43c12.09.67,24.22-.11,36.32-.12,15.88,0,23.27-.09,31.23-.11,30.08-.1,46.75.51,90.1.93,0,0,47.13.45,102.3.06,14.21-.1,21.39-.15,24.74-.31C446,97,464.41,96.74,482.78,96c5.09-.19,11.6-.45,17.2,3.66,5.91,4.33,7.68,11.23,8.55,14.83,7,28.87,10.49,43.3,10.82,46.9,0,0,2.65,29.39,17.24,65.63,5.2,12.91,15.58,38,38.55,59.72,30.78,29.16,67.86,37,81.11,39.16,48.21,7.88,84.11-9.73,93.78,6.72,1.17,2,1.54,8.77,2.26,22.28.85,16.19.82,28,.83,35.3.06,27.9.81,25.59,1,61.18.15,28.59-.37,22.56,0,31.57a521.44,521.44,0,0,1-2.3,62c-.25,2.67-.86,8.21-4.82,10.94-2.7,1.87-5.69,1.56-10.94,1.32-5.78-.26-11.58.34-17.34-.14-13.43-1.13-32.39.31-56.67.82-19.55.4-29.86-.06-63-.93-72.35-1.89-65.83-.78-129.74-2.53-61.13-1.67-64.53-2.61-112.59-3.4-2.31,0-.92,0-86,0-38.74,0-53.88,0-76.53,3.64-41.39,6.62-57.36,17.26-67.33,27a91.44,91.44,0,0,0-17.12,23.8c-10.76,21.29-8.52,36.51-7,86.93,1.85,59.37,0,78.08,13.15,104.72,6.82,13.79,13,20.2,14.51,21.77,19.74,20.08,47.27,23,71,25.22,13.39,1.24,16.58.42,49.2-.27,43.91-.92,44.13.43,80.06-.45,46.56-1.15,70.17-1.88,86.23-9.66,8.25-4,33.41-16.64,45.7-43.82,4.85-10.72,5.65-19.53,7.26-37.14,2-21.94-.1-32.21-2.21-71.8-.48-9-1.36-25.64-1.66-42.85-.53-30,.91-51.18,2.16-72.2,2.08-35.22,3.13-70.49,4.75-105.73,2.63-57.4,3.57-86.62-14.88-112.43a80.08,80.08,0,0,0-14.23-15.38c-19.92-16.14-43.16-17.49-77-17.47-39.1,0-71.85,1.87-100.83,3.54-10.47.6-38.36,2.27-72.58,1.86-6.14-.08-5.26-.13-10.52-.17-24.74-.22-41.52,1-63.58-1.9-7.72-1-14.08-2.27-18-7.35-4.09-5.37-3.34-12.29-3.1-14.7.52-5.2.71-31.8,1.08-85,.17-24.37-2-64.09-2.67-74.82-.13-1.85-.16-4.68-.22-10.34-.18-17.31.66-21.27,3.33-23.88,2.49-2.43,5.67-2.84,8.79-3.18C129.86,96.71,143,97.43,143,97.43Z" transform="translate(-1.44 116.99)"/><rect class="cls-7" x="356.67" y="552.01" width="30.48" height="89.88" transform="translate(8.63 110.84) rotate(0.96)"/><line class="cls-5" x1="345.69" y1="712.19" x2="379.57" y2="713.3"/><rect class="cls-7" x="451.96" y="555.08" width="30.48" height="88.44" transform="translate(8.68 109.24) rotate(0.96)"/><line class="cls-5" x1="418.73" y1="714.08" x2="452.62" y2="715.2"/><rect class="cls-7" x="407.5" y="505.28" width="30.48" height="91.2" transform="translate(-147.27 1066.51) rotate(-87.53)"/><rect class="cls-7" x="404.98" y="597.38" width="30.48" height="90.63" transform="translate(-211.2 1198.74) rotate(-91.7)"/><line class="cls-5" x1="419.54" y1="766.62" x2="420.15" y2="801.28"/><polyline class="cls-8" points="497.05 120.39 497.05 62.37 497.05 0"/><path class="cls-9" d="M497.16-116.83v60.19L422.3-87.46Z" transform="translate(-1.44 116.99)"/><path class="cls-9" d="M353.05-92.07" transform="translate(-1.44 116.99)"/><polyline class="cls-8" points="750.18 350.4 750.18 292.38 750.18 230.01"/><path class="cls-9" d="M750.29,113.18v60.19l-74.86-30.82Z" transform="translate(-1.44 116.99)"/><polyline class="cls-8" points="626.79 672.16 626.79 614.14 626.79 551.77"/><path class="cls-9" d="M626.9,434.94v60.19L552,464.31Z" transform="translate(-1.44 116.99)"/><polyline class="cls-8" points="340.44 430.59 340.44 372.57 340.44 310.2"/><path class="cls-9" d="M340.55,193.37v60.19l-74.86-30.82Z" transform="translate(-1.44 116.99)"/><polyline class="cls-8" points="281.43 868.73 281.43 810.71 281.43 748.34"/><path class="cls-9" d="M281.54,631.51V691.7l-74.87-30.82Z" transform="translate(-1.44 116.99)"/><polyline class="cls-8" points="154.75 120.55 154.75 62.53 154.75 0.16"/><path class="cls-9" d="M154.86-116.67v60.19L80-87.3Z" transform="translate(-1.44 116.99)"/></svg>